<svg width="31" height="31" viewBox="0 0 31 31" fill="none" xmlns="http://www.w3.org/2000/svg">
<rect width="31" height="31" fill="#F2F4FF"/>
<path d="M28.9418 20.7827L28.9388 20.7797L28.9358 20.7767C27.6007 17.9521 25.5331 16.499 22.7812 16.499C20.0293 16.499 17.9617 17.9552 16.6236 20.7767V20.7797C16.4601 21.1278 16.4601 21.5335 16.6236 21.8816C17.9617 24.7031 20.0293 26.1562 22.7812 26.1562C25.5331 26.1562 27.6007 24.7001 28.9388 21.8786C29.1023 21.5305 29.1023 21.1278 28.9418 20.7827ZM22.7812 24.2188C20.9012 24.2188 19.5298 23.3105 18.5096 21.3276C19.5268 19.3447 20.9012 18.4365 22.7812 18.4365C24.6612 18.4365 26.0326 19.3447 27.0528 21.3276C26.0356 23.3105 24.6612 24.2188 22.7812 24.2188Z" fill="#002A3B"/>
<path d="M21.1006 21.3428C21.1006 21.7924 21.2792 22.2236 21.5971 22.5415C21.9151 22.8595 22.3463 23.0381 22.7959 23.0381C23.2455 23.0381 23.6767 22.8595 23.9947 22.5415C24.3126 22.2236 24.4912 21.7924 24.4912 21.3428C24.4912 20.8931 24.3126 20.4619 23.9947 20.144C23.6767 19.8261 23.2455 19.6475 22.7959 19.6475C22.3463 19.6475 21.9151 19.8261 21.5971 20.144C21.2792 20.4619 21.1006 20.8931 21.1006 21.3428Z" fill="white"/>
<path d="M4.11719 7.02344H25.4297V14.6826H27.6094V5.8125C27.6094 5.27666 27.1765 4.84375 26.6406 4.84375H2.90625C2.37041 4.84375 1.9375 5.27666 1.9375 5.8125V21.5547C1.9375 22.0905 2.37041 22.5234 2.90625 22.5234H13.5625V20.3438H4.11719V7.02344Z" fill="#002A3B"/>
<path d="M21.945 10.2355L20.8309 9.12141C20.7371 9.02756 20.5827 9.02756 20.4888 9.12141L14.9246 14.6917L12.318 12.0822C12.2242 11.9883 12.0698 11.9883 11.976 12.0822L7.6075 16.4506C7.51365 16.5445 7.51365 16.6989 7.6075 16.7927L8.72156 17.9068C8.81541 18.0006 8.9698 18.0006 9.06365 17.9068L12.1455 14.8249L14.752 17.4345C14.8459 17.5283 15.0003 17.5283 15.0941 17.4345L21.945 10.5776C22.0419 10.4837 22.0419 10.3293 21.945 10.2355Z" fill="#002A3B"/>
</svg>
