<svg width="12" height="12" viewBox="0 0 12 12" fill="none" xmlns="http://www.w3.org/2000/svg">
<path d="M7.37498 11.2879V6.36464L11.3178 2.17077C11.3764 2.1086 11.4227 2.03464 11.454 1.95323C11.4852 1.87182 11.5009 1.7846 11.5 1.69668V1.07672C11.5 0.98 11.4637 0.887241 11.3993 0.81885C11.3348 0.750458 11.2474 0.712036 11.1562 0.712036H0.843749C0.752581 0.712036 0.665147 0.750458 0.600682 0.81885C0.536216 0.887241 0.5 0.98 0.5 1.07672V1.68574C0.500064 1.77188 0.516195 1.85715 0.547464 1.93663C0.578732 2.01612 0.624519 2.08826 0.682187 2.14889L4.62499 6.39382V10.1136L7.37498 11.2879Z" fill="#44924C"/>
</svg>
