<svg width="13" height="8" viewBox="0 0 13 8" fill="none" xmlns="http://www.w3.org/2000/svg">
<mask id="path-1-inside-1_1_132" fill="white">
<path fill-rule="evenodd" clip-rule="evenodd" d="M12.1225 0L6.5 7.187L0.8905 0L0.5 0.3095L6.5 8L12.5 0.3045L12.1225 0Z"/>
</mask>
<path fill-rule="evenodd" clip-rule="evenodd" d="M12.1225 0L6.5 7.187L0.8905 0L0.5 0.3095L6.5 8L12.5 0.3045L12.1225 0Z" fill="#222222"/>
<path d="M12.1225 0L12.7503 -0.778348L11.9603 -1.41561L11.3349 -0.616165L12.1225 0ZM6.5 7.187L5.71169 7.80228L6.49909 8.81111L7.28762 7.80317L6.5 7.187ZM0.8905 0L1.67881 -0.61528L1.05892 -1.40949L0.26936 -0.7837L0.8905 0ZM0.5 0.3095L-0.12114 -0.4742L-0.898862 0.142203L-0.288432 0.924622L0.5 0.3095ZM6.5 8L5.71157 8.61512L6.50026 9.62602L7.28863 8.61487L6.5 8ZM12.5 0.3045L13.2886 0.919373L13.8934 0.143686L13.1278 -0.473847L12.5 0.3045ZM11.3349 -0.616165L5.71238 6.57084L7.28762 7.80317L12.9101 0.616165L11.3349 -0.616165ZM7.28831 6.57172L1.67881 -0.61528L0.102191 0.61528L5.71169 7.80228L7.28831 6.57172ZM0.26936 -0.7837L-0.12114 -0.4742L1.12114 1.0932L1.51164 0.7837L0.26936 -0.7837ZM-0.288432 0.924622L5.71157 8.61512L7.28843 7.38488L1.28843 -0.305622L-0.288432 0.924622ZM7.28863 8.61487L13.2886 0.919373L11.7114 -0.310373L5.71137 7.38513L7.28863 8.61487ZM13.1278 -0.473847L12.7503 -0.778348L11.4947 0.778348L11.8722 1.08285L13.1278 -0.473847Z" fill="#222222" mask="url(#path-1-inside-1_1_132)"/>
</svg>
