<svg width="15" height="15" viewBox="0 0 15 15" fill="none" xmlns="http://www.w3.org/2000/svg">
<g clip-path="url(#clip0_22_74)">
<path d="M0.00195312 2.8125C0.00195312 2.31522 0.199497 1.83831 0.551128 1.48667C0.902759 1.13504 1.37967 0.9375 1.87695 0.9375H13.127C13.6242 0.9375 14.1011 1.13504 14.4528 1.48667C14.8044 1.83831 15.002 2.31522 15.002 2.8125V12.1875C15.002 12.6848 14.8044 13.1617 14.4528 13.5133C14.1011 13.865 13.6242 14.0625 13.127 14.0625H1.87695C1.37967 14.0625 0.902759 13.865 0.551128 13.5133C0.199497 13.1617 0.00195313 12.6848 0.00195312 12.1875V2.8125ZM0.939453 11.25V12.1875C0.939453 12.4361 1.03823 12.6746 1.21404 12.8504C1.38986 13.0262 1.62831 13.125 1.87695 13.125H13.127C13.3756 13.125 13.614 13.0262 13.7899 12.8504C13.9657 12.6746 14.0645 12.4361 14.0645 12.1875V8.90625L10.5235 7.08094C10.4356 7.0369 10.3361 7.02162 10.239 7.03727C10.1419 7.05291 10.0522 7.09869 9.98258 7.16813L6.50445 10.6462L4.0107 8.985C3.92067 8.92506 3.81267 8.89809 3.70502 8.90869C3.59737 8.91928 3.4967 8.96678 3.42008 9.04313L0.939453 11.25ZM5.62695 5.15625C5.62695 4.78329 5.4788 4.4256 5.21507 4.16188C4.95135 3.89816 4.59366 3.75 4.2207 3.75C3.84774 3.75 3.49006 3.89816 3.22633 4.16188C2.96261 4.4256 2.81445 4.78329 2.81445 5.15625C2.81445 5.52921 2.96261 5.8869 3.22633 6.15062C3.49006 6.41434 3.84774 6.5625 4.2207 6.5625C4.59366 6.5625 4.95135 6.41434 5.21507 6.15062C5.4788 5.8869 5.62695 5.52921 5.62695 5.15625Z" fill="#44924C"/>
</g>
<defs>
<clipPath id="clip0_22_74">
<rect width="15" height="15" fill="white"/>
</clipPath>
</defs>
</svg>
