<svg width="17" height="17" viewBox="0 0 17 17" fill="none" xmlns="http://www.w3.org/2000/svg">
<g clip-path="url(#clip0_9_367)">
<path d="M15.6719 2.93848H10.0482L12.4554 0.53125H10.9528L8.54559 2.93848H8.47101L6.06379 0.53125H4.56121L6.96844 2.93848H1.32812C1.11686 2.93872 0.914311 3.02276 0.764921 3.17215C0.615531 3.32154 0.531496 3.52408 0.53125 3.73535V13.5635C0.531496 13.7747 0.615531 13.9773 0.764921 14.1267C0.914311 14.2761 1.11686 14.3601 1.32812 14.3604H5.04688V16.4688H12.4844V14.3604H15.6719C15.8831 14.3601 16.0857 14.2761 16.2351 14.1267C16.3845 13.9773 16.4685 13.7747 16.4688 13.5635V3.73535C16.4685 3.52408 16.3845 3.32154 16.2351 3.17215C16.0857 3.02276 15.8831 2.93872 15.6719 2.93848ZM11.4219 15.4062H6.10938V14.3604H11.4219V15.4062ZM15.4062 13.2979H1.59375V4.00098H15.4062V13.2979Z" fill="#FBFAFC"/>
</g>
<defs>
<clipPath id="clip0_9_367">
<rect width="17" height="17" fill="white"/>
</clipPath>
</defs>
</svg>
