<svg width="14" height="14" viewBox="0 0 14 14" fill="none" xmlns="http://www.w3.org/2000/svg">
<path d="M7.00216 14C3.43665 13.9537 0.557659 11.1184 0.510665 7.60698C0.557659 4.09556 3.43665 1.26024 7.00216 1.21396C10.5677 1.26024 13.4467 4.09556 13.4937 7.60698C13.4467 11.1184 10.5677 13.9537 7.00216 14ZM7.00216 2.63463C4.22897 2.67059 1.98973 4.87586 1.95322 7.60698C1.98973 10.3381 4.22897 12.5434 7.00216 12.5793C9.77535 12.5434 12.0146 10.3381 12.0511 7.60698C12.0146 4.87586 9.77535 2.67059 7.00216 2.63463ZM10.6086 8.31732H6.28089V4.05531H7.72344V6.89665H10.6086V8.31732ZM12.983 3.13755L10.8127 1.00655L11.829 0L14 2.13101L12.983 3.13684V3.13755ZM1.02061 3.13755L0 2.13101L2.15734 0L3.17795 1.00655L1.02205 3.13755H1.02061Z" fill="#F2C94C"/>
</svg>
