<svg width="55" height="55" viewBox="0 0 55 55" fill="none" xmlns="http://www.w3.org/2000/svg">
<rect width="55" height="55" rx="15" fill="#F2F4FF"/>
<path d="M40.4958 28.8125L38.8344 27.2047C39.0234 26.8293 39.1227 26.4176 39.125 26C39.125 25.4437 38.9546 24.9 38.6352 24.4375C38.3159 23.9749 37.862 23.6145 37.3309 23.4016C36.7999 23.1887 36.2155 23.133 35.6518 23.2415C35.088 23.3501 34.5702 23.6179 34.1637 24.0113C33.7573 24.4046 33.4805 24.9057 33.3683 25.4513C33.2562 25.9969 33.3138 26.5624 33.5337 27.0763C33.7537 27.5902 34.1262 28.0295 34.6041 28.3385C35.0821 28.6476 35.6439 28.8125 36.2188 28.8125C36.6506 28.8104 37.0764 28.7143 37.4646 28.5313L39.125 30.1381V37.25H33.3125V34.4375C33.3104 32.6976 32.5953 31.0296 31.3241 29.7993C30.0528 28.569 28.3291 27.877 26.5312 27.875H20.7188C18.9209 27.877 17.1972 28.569 15.9259 29.7993C14.6547 31.0296 13.9396 32.6976 13.9375 34.4375V39.125H41.0625V30.1381C41.0632 29.8919 41.0135 29.648 40.9162 29.4204C40.8189 29.1929 40.6761 28.9863 40.4958 28.8125ZM15.875 34.4375C15.8765 33.1948 16.3874 32.0033 17.2954 31.1246C18.2034 30.2458 19.4346 29.7515 20.7188 29.75H26.5312C27.8154 29.7515 29.0466 30.2458 29.9546 31.1246C30.8626 32.0033 31.3735 33.1948 31.375 34.4375V37.25H15.875V34.4375Z" fill="#002A3B"/>
<path d="M23.625 14.75C24.583 14.75 25.5195 15.0249 26.316 15.54C27.1126 16.0551 27.7334 16.7871 28.1 17.6437C28.4667 18.5002 28.5626 19.4427 28.3757 20.352C28.1888 21.2613 27.7275 22.0965 27.05 22.7521C26.3726 23.4076 25.5096 23.8541 24.57 24.0349C23.6304 24.2158 22.6565 24.123 21.7714 23.7682C20.8863 23.4134 20.1298 22.8126 19.5976 22.0417C19.0653 21.2709 18.7813 20.3646 18.7813 19.4375C18.7813 18.1943 19.2916 17.002 20.2 16.1229C21.1083 15.2439 22.3404 14.75 23.625 14.75ZM23.625 12.875C22.2838 12.875 20.9727 13.2599 19.8575 13.981C18.7424 14.7021 17.8732 15.727 17.3599 16.9261C16.8467 18.1253 16.7124 19.4448 16.9741 20.7178C17.2357 21.9908 17.8816 23.1601 18.8299 24.0779C19.7783 24.9957 20.9866 25.6207 22.302 25.8739C23.6175 26.1271 24.981 25.9972 26.2201 25.5005C27.4592 25.0038 28.5183 24.1626 29.2634 23.0834C30.0085 22.0042 30.4063 20.7354 30.4063 19.4375C30.4063 17.697 29.6918 16.0278 28.4201 14.7971C27.1483 13.5664 25.4235 12.875 23.625 12.875Z" fill="#002A3B"/>
</svg>
