<svg width="27" height="27" viewBox="0 0 27 27" fill="none" xmlns="http://www.w3.org/2000/svg">
<path d="M13.3333 0C20.6973 0 26.6667 5.97067 26.6667 13.3333C26.6667 20.696 20.6973 26.6667 13.3333 26.6667C5.96933 26.6667 0 20.696 0 13.3333C0 5.97067 5.96933 0 13.3333 0ZM13.3333 2.22267C7.20667 2.22267 2.22267 7.20667 2.22267 13.3333C2.22267 19.46 7.20667 24.444 13.3333 24.444C19.46 24.444 24.444 19.46 24.444 13.3333C24.444 7.20667 19.46 2.22267 13.3333 2.22267ZM12.3333 5.33333C12.575 5.33334 12.8085 5.42086 12.9906 5.57969C13.1727 5.73852 13.2911 5.95793 13.324 6.19733L13.3333 6.33333V13.3333H17.6667C17.92 13.3334 18.1639 13.4297 18.3491 13.6026C18.5342 13.7756 18.6468 14.0124 18.664 14.2652C18.6813 14.5179 18.602 14.7679 18.4421 14.9644C18.2822 15.1609 18.0537 15.2895 17.8027 15.324L17.6667 15.3333H12.3333C12.0917 15.3333 11.8582 15.2458 11.6761 15.087C11.494 14.9281 11.3755 14.7087 11.3427 14.4693L11.3333 14.3333V6.33333C11.3333 6.13555 11.392 5.94221 11.5019 5.77776C11.6117 5.61331 11.7679 5.48514 11.9507 5.40945C12.1334 5.33377 12.3344 5.31396 12.5284 5.35255C12.7224 5.39113 12.9006 5.48637 13.0404 5.62623C13.1803 5.76608 13.2755 5.94426 13.3141 6.13824C13.3527 6.33222 13.3329 6.53329 13.2572 6.71602C13.1815 6.89874 13.0534 7.05492 12.8889 7.1648C12.7245 7.27468 12.5311 7.33333 12.3333 7.33333V5.33333Z" fill="#002A3B"/>
</svg>
