<svg width="11" height="12" viewBox="0 0 11 12" fill="none" xmlns="http://www.w3.org/2000/svg">
<path d="M6.87498 11.2879V6.36464L10.8178 2.17077C10.8764 2.1086 10.9227 2.03464 10.954 1.95323C10.9852 1.87182 11.0009 1.7846 11 1.69668V1.07672C11 0.98 10.9637 0.887241 10.8993 0.81885C10.8348 0.750458 10.7474 0.712036 10.6562 0.712036H0.343749C0.252581 0.712036 0.165147 0.750458 0.100682 0.81885C0.0362163 0.887241 0 0.98 0 1.07672V1.68574C6.42747e-05 1.77188 0.0161954 1.85715 0.0474637 1.93663C0.0787321 2.01612 0.124519 2.08826 0.182187 2.14889L4.12499 6.39382V10.1136L6.87498 11.2879Z" fill="#44924C"/>
</svg>
